<?xml version="1.0" encoding="UTF-8" standalone="no"?><svg xmlns="http://www.w3.org/2000/svg" xmlns:xlink="http://www.w3.org/1999/xlink" fill="#fd9c91" height="24" preserveAspectRatio="xMidYMid meet" version="1" viewBox="3.0 3.0 24.0 24.0" width="24" zoomAndPan="magnify"><g id="change1_1"><path d="M15,3C8.373,3,3,8.373,3,15c0,6.627,5.373,12,12,12s12-5.373,12-12C27,8.373,21.627,3,15,3z M18.616,20H11.5v-1.442 l3.22-3.151c1.388-1.354,1.736-1.866,1.736-2.509c0-0.793-0.643-1.354-1.545-1.354c-0.957,0-1.613,0.629-1.613,1.538v0.041h-1.914 v-0.034c0-1.907,1.463-3.206,3.596-3.206c2.058,0,3.493,1.183,3.493,2.878c0,1.073-0.581,1.996-2.29,3.603l-1.887,1.798v0.123h4.32 V20z" fill="inherit"/></g></svg>