<?xml version="1.0" encoding="UTF-8" standalone="no"?><svg xmlns="http://www.w3.org/2000/svg" xmlns:xlink="http://www.w3.org/1999/xlink" fill="#000000" height="1272.9" preserveAspectRatio="xMidYMid meet" version="1" viewBox="742.5 563.2 3589.7 1272.9" width="3589.7" zoomAndPan="magnify"><g id="change1_1"><path d="M4315.4,832.6c-27.6-200.9-226.9-263.8-410.6-266.5c-197-2.9-395.1,13.1-591.9,21c-132.8,5.3-630.1-9.3-746-2.3 c-39.9-0.4-79.7-0.5-119.6-0.1c-246.3,2.4-493.3,10.6-739.6,3.9c-181.8-4.9-364.1-17.3-546.1-10.7c-64,2.3-133.6,4.8-193.5,28.7 c-9.3,3.7-18,8.5-26,13.9c-22.5,10.2-43.7,23.5-62.1,39.2c-16.1,10.3-31.4,22.5-45.5,36.9c-59.8,61.2-79.6,142.7-86.8,223.8 c-5.2,58.5,1.5,116.2,8.5,173.9c-0.6,63,4.7,127,2.8,187.3c-0.1,3.4-0.2,6-0.3,7.9c-2,13.8-3.8,27.5-5.7,41.3 c-2.2,16.5-3.5,32.3-3.5,49c0,45,4.1,89.4,10.3,134c14,100.2,52.1,209.6,152.8,258.1c49.9,24,114.6,39,179.3,40.4 c30.1,4.4,60.6,1.8,91.3-0.9l0,0c42.8,2.8,86.3,1.9,127.5,1.6c90.7-0.5,181.1,7.8,271.9,5c191.7-5.9,382.4-22.3,574.5-18.2 c194,4.2,388.4,15.5,582.5,10.7c106-2.6,508.3,13.5,551.5,15.8c73.1,3.9,146.9,4.6,220,6.7c107.3,3.1,214.3-1.2,321.4-7.5 c94.4-5.6,194.7-2.6,287.5-21.2c65.9-13.2,124.8-54.2,157.2-111.4c13.8-24.3,22.7-50.6,21.9-76.2c11.5-28.3,16.1-56.9,15.6-85.6 c6.5-15.3,10.6-32,11.5-51.3c1.2-26.5-0.6-53.6-0.7-80.1c-0.2-65,0.7-130,1.2-195C4327.7,1081.6,4332.2,955,4315.4,832.6z" fill="#ffbfb7"/></g></svg>