<?xml version="1.0" encoding="UTF-8" standalone="no"?><svg xmlns="http://www.w3.org/2000/svg" xmlns:xlink="http://www.w3.org/1999/xlink" fill="#fd9c91" height="2441.6" preserveAspectRatio="xMidYMid meet" version="1" viewBox="-1.8 -2.4 3055.5 2441.6" width="3055.5" zoomAndPan="magnify"><g><path d="M1249.2,2338.1c288.6,18.6,587.1,37.8,894.9,14.5c35.1-2.7,72.1-4.5,107.8-6.2 c194.9-9.6,396.3-19.5,453.1-165.2c18-46.3,25.3-111.4,22.1-199.1c-2.7-73.9-12.4-152.5-22.6-226.4 c-41.5-301.8-70.4-501.7-138.3-796.2c-2.3-9.8-4.6-20-6.9-30.4c-24.9-109.3-58.9-259-110.6-319.4 c-62.2-72.4-205.1-95.5-314.1-102.2c-234.6-14.3-435.1,5.9-647.3,27.2c-52.8,5.3-107.3,10.8-162.7,15.7 c-85.9,7.7-173.2,11.9-265.7,16.3c-47.3,2.3-96.2,4.6-145,7.5c-55.6,3.3-112.8,8-168.2,12.5c-81.5,6.6-165.8,13.5-247.2,16.3 c-37.8,1.3-89.6,3-138.1-2.9c-56.5-6.9-95.7-22.6-119.9-48.1c-20.9-22-30-51.2-27.1-86.6c2.3-27,25.3-47,47.5-66.3 c28.6-24.9,45.2-41.6,34.4-63c-7.1-14-9.2-18.2-38.4-10.2c-15.3,4.2-22,16-29.9,29.6c-5.1,8.8-10.3,17.9-18.2,24.8 c-0.4,0.5-0.9,1-1.4,1.4c-11.9,9.5-25.5,14.8-38.7,20c-12.7,5-24.7,9.7-32.2,17.5c-23.5,24.3-42,56.8-55.1,96.5 c-11.8,35.8-19.3,77.7-22.2,124.6c-6.6,105.4,11,207.1,22,258.4c38.7,178.6,136.8,422.2,223.4,637.1l10,24.9 c43.4,107.7,90,217.3,127.5,305.3l6,14.2c7.5,17.6,14.8,35.2,21.9,52.3c39.1,94.3,76.1,183.3,134.1,246 c24.5,26.5,58.9,49.9,102.3,69.5c39,17.6,86.6,32.8,141.5,45c108.7,24.3,232.6,34.4,328.3,40.5 C1200.7,2335,1225,2336.6,1249.2,2338.1z M2596.3,2171.8c-7,24.6-19.1,47.7-33.9,64.9c-17.8,20.6-38.4,31.6-59.7,31.6c0,0,0,0,0,0 c-4.4,0-8-3.6-8-8c-0.1-28.9,25.7-72.4,54-91.2c15.2-10.1,30.1-12.5,43-6.9C2595.4,2163.9,2597.4,2168,2596.3,2171.8z M2618.1,2059.2c-6.7,13.1-18.2,21.1-33.3,23c-0.3,0-0.7,0.1-1,0.1c-2.2,0-4.3-0.9-5.8-2.5c-1.8-1.9-2.5-4.5-2-7 c1.4-7.1-1.9-23.3-5.2-38.9c-6.5-31.1-13.8-66.3,1-84.8c6-7.5,14.8-11.4,26.2-11.7c3-0.1,5.8,1.6,7.2,4.2 C2617.8,1965.2,2635.2,2025.8,2618.1,2059.2z M2551.9,1635.6c-0.1-3.1,1.6-6.1,4.4-7.5c3.1-1.5,6.9-0.9,9.3,1.6 c16.1,16.5,30,47.6,37.3,83.1c7.5,36.8,6.7,72.1-2,97c-0.8,2.2-2.5,3.9-4.6,4.8c-0.9,0.4-1.9,0.5-2.9,0.5c-1.3,0-2.6-0.3-3.8-0.9 c-32-17.1-39.4-66-46-109.1c-2.9-19-5.6-37-10.1-47.5c-0.2-0.4-0.3-0.7-0.4-1.1c-1.4-5.4-1-10,1.5-13.6c3.7-5.5,10-6.3,14.6-6.8 C2549.9,1635.9,2551,1635.7,2551.9,1635.6z M2478,1305c7.9-7.8,20.9-7.8,34.6-7.1c3.5,0.2,6.4,2.5,7.3,5.9 c11.5,42.1,28.9,105.8,19.2,156.3c-0.5,2.5-2.1,4.6-4.3,5.7c-1.1,0.5-2.3,0.8-3.5,0.8c-1.2,0-2.5-0.3-3.6-0.9 c-43.3-22.1-48.5-100.7-51.6-147.6c-0.2-2.4-0.3-4.7-0.5-6.9C2475.4,1309,2476.3,1306.7,2478,1305z M2409.6,958.8 c1.1-2.3,3.4-4,5.9-4.4c2.6-0.4,5.2,0.5,7,2.3c35.4,36.4,54.8,117.3,45.2,188.1c-0.5,4-3.9,6.9-7.9,6.9c-1.5,0-3.1-0.4-4.3-1.2 c-32.2-20.2-39.5-63.2-46.5-104.8c-4.2-25.1-8.6-51.1-18.4-70.1c-1.2-2.4-1.2-5.2,0.1-7.6c1.3-2.3,3.7-3.9,6.4-4.1 C2407.5,963.2,2409,960,2409.6,958.8z M2319.3,762.6c9.3-15.3,20.1-18.1,27.5-17.8c21.2,0.8,37.2,27.6,43,39.1 c12.2,23.9,20.5,57.1,9.7,73.3c-1.5,2.3-4,3.6-6.7,3.6c-0.9,0-1.8-0.1-2.6-0.5c-25.6-9-36.5-31.1-47.1-52.5 c-6.7-13.5-12.9-26.2-22.5-35.1C2317.8,770,2317.3,765.8,2319.3,762.6z M2094.1,644.9c17-7.6,40.3-11.1,64-9.4 c24.9,1.7,46.1,8.7,59.7,19.6c13.7,11,19.2,25.4,15.9,41.6c-0.8,3.8-4.1,6.4-7.8,6.4c-0.3,0-0.6,0-0.9,0 c-32.5-3.5-55.5-2.9-77.9-2.3c-22.1,0.6-43,1.1-70.2-2.5c-2.1-0.3-4-1.4-5.3-3.1c-1.3-1.7-1.8-3.9-1.5-6c0.1-0.4,0.1-0.7,0.1-1 c-3.1-1.3-5.1-4.4-5-7.8C2065.7,669.9,2071.2,655.2,2094.1,644.9z M1751.2,672.1c13.6-16.4,42.8-15.1,68.5-14 c7.1,0.3,13.8,0.6,19.6,0.5c3.5-0.1,7.7-0.2,12.1-0.5c24.2-1.1,54.3-2.5,69,11.7c5.5,5.4,8.3,12.3,8.1,20.6c0,2-0.8,4-2.1,5.4 c-14.5,15.6-43.2,23.8-85.2,24.3c-1.5,0-3,0-4.5,0c-35.5,0-70.7-5.3-84.5-7.6c-3.2-0.5-5.7-3-6.5-6.1 C1742.4,692,1744.2,680.4,1751.2,672.1z M1448.6,688.4c24.8-15.7,91.8-24.5,131.9-11.9c16.7,5.2,27.6,13.7,32.4,25.2 c0.8,1.8,0.8,3.9,0.1,5.8c-4.9,13.5-16.3,21.5-34.8,24.5c-14.6,2.3-32.3,1.3-49.4,0.2c-22.2-1.3-45.1-2.7-58.3,3.6 c-1.1,0.5-2.3,0.8-3.4,0.8c-2.5,0-4.9-1.2-6.5-3.3c-7-9.7-13.8-20.9-15.8-37.2C1444.6,693,1446,690.1,1448.6,688.4z M1195.2,692.4 c17.1-12.5,46.7-11,68.5-7.5c25,4,48.9,11.9,59.4,17.6c2.6,1.4,4.3,4.2,4.2,7.2c-0.3,11.6-5.4,21.2-14.7,27.8 c-11.7,8.2-29.1,11.1-47.3,11.1c-31.6,0-65.8-8.5-77.3-12.3c-2.8-0.9-4.8-3.2-5.4-6.1C1178.7,709.4,1187.3,698.1,1195.2,692.4z M395.9,746.5c-8.3,16.9-29.1,25.5-61.9,25.5c-2.3,0-4.7,0-7.1-0.1c-28.3-1-58.3-7.3-76.2-11l-2-0.4c-2.7-0.6-4.9-2.5-5.9-5.1 c-6-16.2-0.5-27,5.1-33.1c11.4-12.4,32.3-16.2,47.8-17.2c18.9-1.2,40.3,0.9,58.5,5.9c31.4,8.6,40.3,21.3,42.2,30.4 C396.9,743.1,396.6,744.9,395.9,746.5z M713.3,730.3c-26.1,27.7-76.7,28.6-125.7,29.5c-8.8,0.2-18,0.3-26.8,0.7c-0.1,0-0.2,0-0.3,0 c-4.2,0-7.6-3.2-8-7.4c-0.8-10.5-4-12-5-12.5c-2.8-1.3-4.5-4.1-4.5-7.2c0-10.3,6.6-15,10.5-17.9c3.7-2.7,4-3.1,3.8-5.4 c-0.1-2.4,0.8-4.7,2.6-6.3s4.2-2.4,6.5-2.1c22.8,3.1,45.3-2.1,65.1-6.8c17.1-4,33.3-7.8,47.6-5.7c16.9,2.5,28.9,12.8,36.8,31.7 C717.4,724.2,716.3,728.1,713.3,730.3z M1070.3,740.3c-15.5,8.8-35.4,11.8-56.9,11.8c-28.4,0-59.5-5.4-86.9-10.1l-4.7-0.8 c-3.5-0.6-6.2-3.5-6.6-7c-1.8-15.8,3.6-28.7,15.6-37.4c15.3-11.1,37.2-12.6,52.9-11.9c19.6,0.9,40.4,5.7,57.1,13.3 c20.3,9.2,32.2,21.4,33.4,34.5C1074.6,735.7,1073.1,738.8,1070.3,740.3z" fill="none"/><path d="M327,263.2c23.3,101.2,45.1,192.6,72.4,281.1c282,5.2,571.9-19.4,852.4-43.1c177.7-15.1,361.5-30.6,538.1-38 c194.2-8.1,361-5.3,509.5,8.6c1.3-46.1-8.1-113.1-16.5-172.7c-2.4-17.1-4.7-33.3-6.7-48.9c-241.9,8.8-456.9,7.3-684.4,5.7 c-93.2-0.6-189.5-1.3-291.6-1.3c-99.1,0-201.3-2-300.2-4C768.7,246,529.7,241.2,327,263.2z M529.3,441.5c-2.8,0-5.6-0.3-8.5-0.9 c-1.6-0.3-3.1-1.2-4.3-2.4c-11.3-12-14-27.8-7.2-41.3c7.4-14.6,23.7-22.2,42.6-19.9c2.4,0.3,4.6,1.7,5.9,3.8 c8.6,14.4,8.3,33.5-0.9,46.5C550.5,436.6,540.7,441.5,529.3,441.5z M630.4,410.9c-2.2,16.9-6.1,28.3-12.5,36.9 c-8.3,11.1-20.6,16.7-36.8,16.7c-0.5,0-1.1,0-1.6,0c-3.3-0.1-6.3-2.2-7.4-5.3c-1-2.8-2.5-5.3-4.1-8c-1.9-3.2-4-6.8-5.5-11.2 c-0.5-1.6-0.6-3.3-0.1-4.9c4.6-14.8,15.7-27.7,28.9-33.7c11.2-5.1,23.2-5,34.5,0.1c2.4,1.1,4.1,3.3,4.6,5.9 C630.8,408.5,630.7,409.8,630.4,410.9z M1985.5,347.1c1.5-2.1,3.8-3.4,6.4-3.4c32.1-0.7,46.2,17.1,54.9,32.7c1,1.8,1.3,3.9,0.8,5.8 c-3.2,12.9-11.8,21.3-23.5,23.2c-1.6,0.3-3.3,0.4-5,0.4c-13.3,0-27.3-7.9-34.9-20C1976.4,373.5,1976.9,359.4,1985.5,347.1z M1922.8,348.2c1.5-3.1,4.7-4.9,8-4.5c33,3.4,52,24.1,54.9,59.8c0.3,3.2-1.4,6.3-4.3,7.8c-5.9,3-12,4.5-18,4.5 c-10.1,0-20.1-4.2-28.5-12.3C1919.6,388.7,1914.6,365.5,1922.8,348.2z" fill="none"/><path d="M2582.1,805.3c26.3,94.3,45.1,197.6,63.2,297.5c5.8,31.7,11.7,64.5,17.9,96.7l1.6,8.4 c50,262,101.6,532.9,108,823.1c82.1-19.2,178.9-67.5,194.4-144.4c10-49.8-3.6-111-16.8-170.2c-4.1-18.3-8.3-37.3-11.8-55.8 c-22.7-120.1-48.8-239.9-73.9-355.7c-21.5-99-41.9-192.5-59.7-283.7c-7.6-38.9-15-78.9-22.1-117.6 c-23.1-125.2-46.9-254.6-82.7-366.1c-19.2-59.8-40.2-109.9-64.1-153c-26.1-46.9-55-84.6-88.3-115.1c-13.8,1.4-26.2-0.6-37.2-2.4 c-12.6-2.1-23.7-3.9-34.2-0.2c-9.6,50.4-5,102.1-0.6,152.1c4.3,48.6,8.3,94.6-2.4,131.8C2518,618.7,2552.7,699.7,2582.1,805.3z M2860.2,1746.6c3.6-0.2,6.9,2.1,8,5.5c3.8,11.7,8.7,30.7,10.7,48.8c2.8,25.2-0.1,43.5-8.7,54.6c-4.4,5.6-12.4,12.1-26.2,12.1 c-1,0-2,0-3-0.1c-3.3-0.2-6.2-2.5-7.1-5.7c-6.5-21.6-19.7-74.7-1.5-100.6C2838.7,1752.3,2848.3,1747.2,2860.2,1746.6z M2793.1,1487 c21.3,5.4,32,41.9,35.7,57.3c4.4,18.6,6.2,38,5.1,54.6c-1.3,19.9-6.8,34.6-15.9,42.4c-1.5,1.3-3.4,1.9-5.2,1.9 c-2.1,0-4.2-0.8-5.8-2.5c-16.2-17.1-25.8-45.5-31.1-66.3c-6.1-24.1-9.6-51.4-9.3-72.9c0-1.9,0.7-3.8,2-5.2 C2778,1485.8,2787.1,1485.5,2793.1,1487z M2755.2,1136.2c5.1,1.9,7,6.9,7.8,9.4c19.1,37.9,34.4,123.7,14.1,168.5 c-0.9,2.1-2.7,3.6-4.8,4.3c-0.8,0.3-1.6,0.4-2.4,0.4c-1.4,0-2.8-0.4-4-1.1c-37.2-21.5-39.8-99.8-41.5-151.6 c-0.2-6.2-0.4-12.1-0.6-17.1c-0.1-2.9,1.3-5.6,3.7-7.1c2.4-1.5,5.5-1.7,8-0.3c1.2,0.6,2.2,0.4,6.2-2.2 C2745,1137.1,2749.7,1134.1,2755.2,1136.2z M2688.8,878.1h9.5c1.7,0,3.3,0.5,4.7,1.5c16.4,11.9,28.3,33.4,34.5,62.1 c5.4,25,6.1,54.8,2.1,83.9c-0.3,2.5-1.8,4.6-4,5.9c-1.2,0.7-2.6,1-4,1c-1.1,0-2.1-0.2-3.1-0.6c-43.7-18.5-58.4-109.4-47.5-148 C2682.1,880.4,2685.2,878.1,2688.8,878.1z M2650,616c13.3,8.6,21.7,27.9,25.8,58.9c3.4,26.3,2.7,54.2,1.9,68.5 c-0.1,2.2-1.1,4.2-2.8,5.7c-1.5,1.2-3.3,1.9-5.2,1.9c-0.3,0-0.6,0-0.9,0c-43.2-4.8-48.1-47.1-52.4-84.5 c-1.6-14.1-3.3-28.6-6.9-40.5c-1.1-3.7,0.6-7.7,4-9.4C2630.8,607.7,2642.9,611.4,2650,616z M2542.4,389.3c0.2-4.2,3.7-7.5,8-7.5 h28.6c3.4,0,6.4,2.1,7.5,5.3c2.6,7.2,6,14.6,9.6,22.5c13.3,29,28.3,61.9,9.1,98.5c-1.2,2.3-3.5,3.9-6.1,4.2c-0.3,0-0.7,0.1-1,0.1 c-2.2,0-4.4-0.9-5.9-2.6C2565.6,480.6,2539.9,432.1,2542.4,389.3z" fill="none"/><path d="M537.4,160.4c-2.8,3.2-3.7,8.3-2.8,15.3c17.1,14.4,45.4,14.6,70.4,14.8c6.3,0.1,12.3,0.1,17.9,0.4 c24.7,1.1,51.1,0.7,76.6,0.4c12.4-0.2,25.3-0.4,37.6-0.4c183.6,0,362.8,2.8,536,5.4c343.4,5.3,667.9,10.3,1011.2-5.1 c-3.3-31.8-23.7-74.6-43.3-99.2c-237.9-25.8-488.6-29-725.4-9.2c-75.3,6.3-152.3,14.8-226.8,23c-140.8,15.5-286.5,31.6-432.2,34.2 c-90.4,1.6-185.3,4.5-266.4,14.2c-4.3,0.5-9.5,0.3-15.6,0C561.6,153.7,543.9,152.9,537.4,160.4z" fill="none"/><path d="M2337.8,355.7c3.5,48.3,7.1,97.9,29.1,126.9C2359.2,438.5,2349.5,396.1,2337.8,355.7z" fill="none"/><path d="M278.2,496.8c2.1,9.9,7.6,23.8,21.5,33.4c11.1,7.7,25.3,11.1,42,9.9c-4.7-44.4-10.8-86.3-28.1-116.7 C289.7,433.6,270.7,462.2,278.2,496.8z" fill="none"/><path d="M2327.2,140.7c11,41.3,23.9,83.6,36.5,124.8c24.6,80.5,50,163.4,62.8,244.6c8.1-24.1,2.2-59.8-2.8-89.7 c-2.4-14.5-4.7-28.2-5.3-39.6c-3.2-63.1,0.6-114.3,5.1-173.6c1.4-18.4,2.8-37.3,4-57.5c-23-0.4-43.2-2.8-62.8-5.1 C2351.8,142.9,2339.6,141.5,2327.2,140.7z" fill="none"/><g id="change1_1"><path d="M3000.2,1635.9c-4.6-19.5-9-37.9-12.7-54.8c-65-299.1-131-638.2-181.2-930.2c-11.3-65.5-38.8-145-86.5-250.1 C2693.6,343,2669,292,2634,253.7c-38.5-42.1-85.4-62.7-143.1-62.9c-0.3-9.8,1.4-19.6,3-29.1c2.9-17.1,5.9-34.8-2.8-51.5 c-0.5-1.4-1.4-2.7-2.6-3.6c-37.7-29.7-118.6-40.2-181.4-35.5c-34.5-67.4-133-66.8-228.3-66.2c-19.2,0.1-39,0.2-57.9-0.2 c-22.1-0.5-43.3-1.1-63.8-1.6c-118.1-3.1-211.4-5.5-328.2,1.6c-88.2,5.4-177.1,12.5-263.1,19.4c-82.2,6.6-167.2,13.4-252.3,18.8 c-43.5,2.8-87.5,8.5-130.1,13.9c-54.3,7-105.6,13.5-155.9,14.8c-25.2,0.6-50.7,0.6-75.3,0.6c-98.7-0.1-191.9-0.2-271.4,38.3 c-14.7,6.2-14.3,24.8-13.9,39.8c0.2,7.9,0.4,17.4-1.7,22.1c-22.5,3.6-47.8,4.9-72.3,6.2c-41.6,2.2-84.7,4.4-117,17.7 c-0.6,0.2-1.1,0.5-1.6,0.9c-8.2,5.8-13.8,15-16.5,27.2c-1.7,7.9-2.3,17.1-1.8,28c-34.1,0.3-52.8,26-68.1,47 c-7.8,10.7-15.1,20.7-23.4,26.6c-7,5-14.9,7.4-23.3,10c-10.2,3.1-20.7,6.3-29.9,14.4c-42,37.1-72.5,87-90.6,148.2 C5.1,551.7-1.8,614.7,0.4,685.9C2.3,745.3,10.5,812.3,25,885.1c11.1,55.9,26.1,116.2,45.7,184.4 c82.7,287.1,187.2,533.9,297.8,795.2l3.1,7.4c6.2,14.7,12.6,29.9,18.7,44.5c51.5,123.1,104.8,250.3,173.9,320.7 c36.2,37,84.3,67,147,91.8c55.1,21.8,120.1,38.9,198.7,52.4c144.9,24.8,310.3,32.5,470.4,39.9c61.7,2.9,119.9,5.6,176.9,9.2 c89.8,5.7,177.1,8.6,267,8.6c89.9,0,182.5-2.9,282.8-8.6c30.7-1.7,61.5-3.2,91.4-4.6c150.7-7.1,293.1-13.9,399.4-55.9 c57.6-22.8,100.4-54,130.7-95.6c32.7-44.8,50.3-100.5,53.9-170c55.8-14.2,101.1-31.4,138.3-52.6c53.1-30.2,88.4-68.3,104.9-113.2 C3053.7,1861.6,3024.1,1736.4,3000.2,1635.9z M2475.6,419c-4.4-50-9-101.7,0.6-152.1c10.6-3.7,21.6-1.9,34.2,0.2 c11,1.8,23.4,3.8,37.2,2.4c33.4,30.5,62.3,68.2,88.3,115.1c24,43.2,45,93.2,64.1,153c35.8,111.5,59.6,241,82.7,366.1 c7.1,38.7,14.5,78.7,22.1,117.6c17.8,91.1,38.1,184.7,59.7,283.7c25.2,115.8,51.2,235.6,73.9,355.7c3.5,18.4,7.7,37.4,11.8,55.8 c13.2,59.2,26.8,120.4,16.8,170.2c-15.5,76.9-112.3,125.1-194.4,144.4c-6.4-290.2-58.1-561.1-108-823.1l-1.6-8.4 c-6.2-32.2-12.1-65-17.9-96.7c-18.2-99.9-37-203.2-63.2-297.5c-29.4-105.6-64.1-186.7-108.9-254.6 C2484,513.7,2479.9,467.6,2475.6,419z M706.7,2248c-43.4-19.6-77.8-43-102.3-69.5c-58-62.8-95-151.8-134.1-246 c-7.1-17-14.4-34.6-21.9-52.3l-6-14.2c-37.5-88.1-84.1-197.6-127.5-305.3l-10-24.9c-86.6-214.9-184.7-458.5-223.4-637.1 c-11.1-51.3-28.6-153-22-258.4c2.9-46.9,10.4-88.8,22.2-124.6c13.1-39.7,31.6-72.2,55.1-96.5c7.5-7.7,19.5-12.5,32.2-17.5 c13.1-5.2,26.7-10.5,38.7-20c0.5-0.4,1-0.9,1.4-1.4c7.9-6.9,13.1-16,18.2-24.8c7.8-13.6,14.5-25.4,29.9-29.6 c29.2-8,31.4-3.8,38.4,10.2c10.8,21.4-5.8,38.1-34.4,63c-22.2,19.3-45.2,39.3-47.5,66.3c-3,35.5,6.1,64.6,27.1,86.6 c24.2,25.5,63.5,41.2,119.9,48.1c48.4,5.9,100.2,4.1,138.1,2.9c81.4-2.8,165.7-9.6,247.2-16.3c55.4-4.5,112.6-9.1,168.2-12.5 c48.7-2.9,97.7-5.2,145-7.5c92.5-4.4,179.8-8.6,265.7-16.3c55.3-5,109.9-10.4,162.7-15.7c212.3-21.3,412.7-41.5,647.3-27.2 c109,6.7,251.9,29.8,314.1,102.2c51.7,60.3,85.8,210,110.6,319.4c2.4,10.5,4.7,20.6,6.9,30.4c67.9,294.5,96.8,494.4,138.3,796.2 c10.1,73.9,19.9,152.5,22.6,226.4c3.2,87.7-4.1,152.8-22.1,199.1c-56.8,145.7-258.3,155.6-453.1,165.2 c-35.8,1.8-72.8,3.6-107.8,6.2c-307.8,23.3-606.2,4.1-894.9-14.5c-24.2-1.6-48.5-3.1-72.7-4.7c-95.7-6.1-219.6-16.2-328.3-40.5 C793.3,2280.7,745.7,2265.6,706.7,2248z M574.5,154.3c6.1,0.3,11.4,0.5,15.6,0c81.1-9.7,175.9-12.6,266.4-14.2 c145.8-2.6,291.4-18.7,432.2-34.2c74.5-8.2,151.5-16.7,226.8-23c236.8-19.8,487.5-16.6,725.4,9.2c19.6,24.6,40,67.4,43.3,99.2 c-343.3,15.4-667.8,10.4-1011.2,5.1c-173.2-2.7-352.3-5.4-536-5.4c-12.3,0-25.1,0.2-37.6,0.4c-25.5,0.4-51.8,0.8-76.6-0.4 c-5.7-0.3-11.6-0.3-17.9-0.4c-25-0.2-53.3-0.4-70.4-14.8c-0.9-7,0-12.1,2.8-15.3C543.9,152.9,561.6,153.7,574.5,154.3z M1591.8,255.9c227.5,1.6,442.5,3,684.4-5.7c2,15.5,4.3,31.8,6.7,48.9c8.4,59.5,17.8,126.6,16.5,172.7 c-148.5-13.9-315.3-16.7-509.5-8.6c-176.6,7.4-360.4,22.9-538.1,38c-280.5,23.8-570.4,48.3-852.4,43.1 c-27.3-88.4-49.1-179.9-72.4-281.1c202.7-22,441.7-17.2,673-12.6c98.8,2,201.1,4,300.2,4C1402.3,254.7,1498.6,255.3,1591.8,255.9z M299.7,530.2c-13.8-9.6-19.3-23.5-21.5-33.4c-7.5-34.5,11.5-63.1,35.4-73.4c17.3,30.4,23.4,72.3,28.1,116.7 C324.9,541.3,310.8,537.9,299.7,530.2z M2366.9,482.6c-22-29-25.6-78.6-29.1-126.9C2349.5,396.1,2359.2,438.5,2366.9,482.6z M2423.4,207c-4.4,59.3-8.2,110.5-5.1,173.6c0.6,11.3,2.8,25.1,5.3,39.6c5,29.9,10.9,65.6,2.8,89.7 c-12.8-81.1-38.2-164.1-62.8-244.6c-12.6-41.1-25.5-83.5-36.5-124.8c12.4,0.8,24.6,2.3,37.5,3.8c19.6,2.3,39.8,4.7,62.8,5.1 C2426.2,169.7,2424.8,188.7,2423.4,207z"/></g><g id="change1_2"><path d="M1963.3,415.8c6,0,12.1-1.5,18-4.5c2.9-1.5,4.6-4.5,4.3-7.8c-2.9-35.8-21.9-56.4-54.9-59.8c-3.4-0.3-6.6,1.5-8,4.5 c-8.2,17.3-3.1,40.5,12.1,55.2C1943.2,411.6,1953.2,415.8,1963.3,415.8z"/></g><g id="change1_3"><path d="M2019,405.8c1.7,0,3.4-0.1,5-0.4c11.7-1.9,20.3-10.3,23.5-23.2c0.5-2,0.2-4.1-0.8-5.8c-8.7-15.6-22.8-33.4-54.9-32.7 c-2.5,0.1-4.9,1.3-6.4,3.4c-8.6,12.3-9.1,26.4-1.4,38.7C1991.7,397.9,2005.8,405.8,2019,405.8z"/></g><g id="change1_4"><path d="M557.8,380.9c-1.3-2.1-3.4-3.5-5.9-3.8c-18.9-2.3-35.2,5.3-42.6,19.9c-6.8,13.4-4.1,29.2,7.2,41.3c1.1,1.2,2.6,2,4.3,2.4 c2.9,0.6,5.8,0.9,8.5,0.9c11.4,0,21.1-4.9,27.6-14C566.1,414.5,566.5,395.3,557.8,380.9z"/></g><g id="change1_5"><path d="M2598.1,512.3c0.3,0,0.7,0,1-0.1c2.6-0.3,4.8-1.9,6.1-4.2c19.3-36.6,4.2-69.5-9.1-98.5c-3.6-7.8-7-15.2-9.6-22.5 c-1.2-3.2-4.2-5.3-7.5-5.3h-28.6c-4.2,0-7.7,3.3-8,7.5c-2.4,42.8,23.2,91.3,49.8,120.4C2593.7,511.3,2595.8,512.3,2598.1,512.3z"/></g><g id="change1_6"><path d="M626,401.5c-11.4-5.1-23.3-5.1-34.5-0.1c-13.2,6-24.3,18.9-28.9,33.7c-0.5,1.6-0.5,3.3,0.1,4.9c1.5,4.4,3.6,8,5.5,11.2 c1.6,2.7,3.1,5.3,4.1,8c1.1,3.1,4,5.3,7.4,5.3c0.5,0,1.1,0,1.6,0c16.1,0,28.5-5.6,36.8-16.7c6.4-8.6,10.3-20,12.5-36.9 c0.3-1.2,0.4-2.4,0.2-3.6C630.1,404.7,628.4,402.5,626,401.5z"/></g><g id="change1_7"><path d="M2609.5,625.9c3.6,11.9,5.2,26.4,6.9,40.5c4.3,37.4,9.2,79.7,52.4,84.5c0.3,0,0.6,0,0.9,0c1.9,0,3.7-0.7,5.2-1.9 c1.7-1.4,2.7-3.5,2.8-5.7c0.8-14.3,1.5-42.1-1.9-68.5c-4-31-12.5-50.2-25.8-58.9c-7.1-4.6-19.2-8.3-36.4,0.5 C2610.1,618.3,2608.4,622.2,2609.5,625.9z"/></g><g id="change1_8"><path d="M2070.2,688.2c0,0.3,0,0.6-0.1,1c-0.3,2.1,0.3,4.3,1.5,6c1.3,1.7,3.2,2.8,5.3,3.1c27.2,3.6,48.1,3.1,70.2,2.5 c22.3-0.6,45.4-1.2,77.9,2.3c0.3,0,0.6,0,0.9,0c3.8,0,7.1-2.6,7.8-6.4c3.3-16.2-2.2-30.6-15.9-41.6c-13.6-10.9-34.8-17.9-59.7-19.6 c-23.6-1.7-46.9,1.8-64,9.4c-22.9,10.3-28.4,25-28.9,35.5C2065,683.8,2067.1,687,2070.2,688.2z"/></g><g id="change1_9"><path d="M1752.1,712.6c13.8,2.3,49,7.6,84.5,7.6c1.5,0,3,0,4.5,0c42-0.5,70.6-8.7,85.2-24.3c1.3-1.4,2.1-3.4,2.1-5.4 c0.2-8.3-2.6-15.3-8.1-20.6c-14.7-14.3-44.8-12.9-69-11.7c-4.4,0.2-8.6,0.4-12.1,0.5c-5.9,0.1-12.6-0.2-19.6-0.5 c-25.7-1.1-54.8-2.4-68.5,14c-6.9,8.3-8.8,19.9-5.5,34.5C1746.4,709.7,1748.9,712.1,1752.1,712.6z"/></g><g id="change1_10"><path d="M1460.7,733.3c1.5,2.1,4,3.3,6.5,3.3c1.2,0,2.3-0.3,3.4-0.8c13.2-6.3,36.1-4.9,58.3-3.6c17.1,1,34.8,2.1,49.4-0.2 c18.6-2.9,30-10.9,34.8-24.5c0.7-1.9,0.6-4-0.1-5.8c-4.8-11.5-15.7-19.9-32.4-25.2c-40.1-12.6-107.2-3.8-131.9,11.9 c-2.6,1.7-4,4.6-3.7,7.7C1446.9,712.4,1453.7,723.6,1460.7,733.3z"/></g><g id="change1_11"><path d="M1188,736.3c11.5,3.8,45.7,12.3,77.3,12.3c18.2,0,35.6-2.8,47.3-11.1c9.3-6.6,14.4-16.2,14.7-27.8c0.1-3-1.5-5.8-4.2-7.2 c-10.6-5.7-34.4-13.6-59.4-17.6c-21.8-3.5-51.4-5-68.5,7.5c-7.9,5.8-16.5,17-12.5,37.8C1183.2,733,1185.2,735.3,1188,736.3z"/></g><g id="change1_12"><path d="M679.2,689.1c-14.3-2.1-30.5,1.7-47.6,5.7c-19.8,4.7-42.3,9.9-65.1,6.8c-2.4-0.3-4.8,0.4-6.5,2.1s-2.7,4-2.6,6.3 c0.1,2.3-0.2,2.7-3.8,5.4c-3.9,2.9-10.5,7.6-10.5,17.9c0,3.1,1.8,5.9,4.5,7.2c1,0.5,4.2,2,5,12.5c0.3,4.2,3.8,7.4,8,7.4 c0.1,0,0.2,0,0.3,0c8.8-0.3,17.9-0.5,26.8-0.7c49-0.9,99.6-1.8,125.7-29.5c2.9-2.2,4-6.1,2.6-9.5 C708.1,701.9,696.1,691.6,679.2,689.1z"/></g><g id="change1_13"><path d="M1040.9,698.1c-16.7-7.5-37.5-12.4-57.1-13.3c-15.7-0.7-37.6,0.8-52.9,11.9c-12,8.7-17.4,21.7-15.6,37.4 c0.4,3.5,3.1,6.4,6.6,7l4.7,0.8c27.3,4.7,58.5,10.1,86.9,10.1c21.5,0,41.4-3.1,56.9-11.8c2.7-1.6,4.3-4.6,4-7.7 C1073.1,719.6,1061.3,707.3,1040.9,698.1z"/></g><g id="change1_14"><path d="M354.3,710.9c-18.3-5-39.6-7.2-58.5-5.9c-15.5,1-36.5,4.8-47.8,17.2c-5.7,6.2-11.2,16.9-5.1,33.1c1,2.6,3.2,4.5,5.9,5.1 l2,0.4c17.9,3.8,47.9,10,76.2,11c2.4,0.1,4.8,0.1,7.1,0.1c32.9,0,53.7-8.6,61.9-25.5c0.8-1.6,1-3.4,0.6-5.1 C394.6,732.2,385.7,719.5,354.3,710.9z"/></g><g id="change1_15"><path d="M2343.2,807.7c10.6,21.4,21.5,43.6,47.1,52.5c0.9,0.3,1.8,0.5,2.6,0.5c2.6,0,5.2-1.3,6.7-3.6c10.8-16.2,2.5-49.4-9.7-73.3 c-5.9-11.5-21.8-38.3-43-39.1c-7.4-0.3-18.2,2.6-27.5,17.8c-2,3.2-1.4,7.5,1.4,10C2330.2,781.5,2336.5,794.2,2343.2,807.7z"/></g><g id="change1_16"><path d="M2728.6,1031.8c1,0.4,2.1,0.6,3.1,0.6c1.4,0,2.7-0.4,4-1c2.2-1.2,3.6-3.4,4-5.9c4-29.1,3.2-58.9-2.1-83.9 c-6.2-28.7-18.1-50.2-34.5-62.1c-1.4-1-3-1.5-4.7-1.5h-9.5c-3.6,0-6.7,2.4-7.7,5.8C2670.1,922.4,2684.8,1013.3,2728.6,1031.8z"/></g><g id="change1_17"><path d="M2390.7,968.1c-1.3,2.3-1.4,5.2-0.1,7.6c9.8,19.1,14.2,45,18.4,70.1c7,41.6,14.2,84.6,46.5,104.8c1.3,0.8,2.8,1.2,4.3,1.2 c4,0,7.4-3,7.9-6.9c9.6-70.8-9.8-151.6-45.2-188.1c-1.8-1.9-4.4-2.7-7-2.3c-2.6,0.4-4.8,2-5.9,4.4c-0.6,1.2-2.1,4.3-12.5,5.2 C2394.4,964.2,2392,965.7,2390.7,968.1z"/></g><g id="change1_18"><path d="M2735.4,1141.5c-2.5-1.3-5.6-1.2-8,0.3c-2.4,1.5-3.8,4.3-3.7,7.1c0.2,5,0.4,10.9,0.6,17.1c1.7,51.8,4.3,130.1,41.5,151.6 c1.2,0.7,2.6,1.1,4,1.1c0.8,0,1.6-0.1,2.4-0.4c2.2-0.7,3.9-2.3,4.8-4.3c20.3-44.8,5-130.6-14.1-168.5c-0.8-2.4-2.7-7.5-7.8-9.4 c-5.5-2.1-10.2,0.9-13.6,3.1C2737.6,1141.8,2736.6,1142.1,2735.4,1141.5z"/></g><g id="change1_19"><path d="M2476.1,1318.2c3.1,46.9,8.3,125.5,51.6,147.6c1.1,0.6,2.4,0.9,3.6,0.9c1.2,0,2.4-0.3,3.5-0.8c2.3-1.1,3.9-3.2,4.3-5.7 c9.7-50.5-7.7-114.2-19.2-156.3c-0.9-3.3-3.9-5.7-7.3-5.9c-13.7-0.7-26.7-0.7-34.6,7.1c-1.7,1.6-2.5,3.9-2.4,6.3 C2475.7,1313.5,2475.9,1315.8,2476.1,1318.2z"/></g><g id="change1_20"><path d="M2768.6,1496.3c-1.3,1.4-2,3.3-2,5.2c-0.2,21.5,3.3,48.8,9.3,72.9c5.2,20.8,14.9,49.2,31.1,66.3c1.6,1.7,3.7,2.5,5.8,2.5 c1.9,0,3.7-0.6,5.2-1.9c9.1-7.9,14.6-22.5,15.9-42.4c1.1-16.6-0.7-36-5.1-54.6c-3.6-15.4-14.4-51.9-35.7-57.3 C2787.1,1485.5,2778,1485.8,2768.6,1496.3z"/></g><g id="change1_21"><path d="M2534.5,1642.8c-2.4,3.6-2.9,8.2-1.5,13.6c0.1,0.4,0.2,0.7,0.4,1.1c4.5,10.5,7.2,28.5,10.1,47.5c6.6,43.1,14,92,46,109.1 c1.2,0.6,2.5,0.9,3.8,0.9c1,0,2-0.2,2.9-0.5c2.2-0.8,3.9-2.6,4.6-4.8c8.8-24.8,9.5-60.2,2-97c-7.2-35.5-21.2-66.6-37.3-83.1 c-2.4-2.5-6.2-3.1-9.3-1.6c-2.8,1.4-4.5,4.4-4.4,7.5c-0.9,0.2-2,0.3-2.8,0.4C2544.5,1636.5,2538.2,1637.3,2534.5,1642.8z"/></g><g id="change1_22"><path d="M2833.8,1861.9c1,3.2,3.8,5.5,7.1,5.7c1,0.1,2,0.1,3,0.1c13.8,0,21.8-6.5,26.2-12.1c8.6-11.1,11.5-29.5,8.7-54.6 c-2-18.1-6.9-37.1-10.7-48.8c-1.1-3.4-4.4-5.7-8-5.5c-11.9,0.6-21.5,5.7-27.8,14.7C2814.1,1787.2,2827.3,1840.3,2833.8,1861.9z"/></g><g id="change1_23"><path d="M2597.9,1937.5c-11.4,0.2-20.2,4.2-26.2,11.7c-14.7,18.5-7.4,53.7-1,84.8c3.2,15.6,6.6,31.7,5.2,38.9c-0.5,2.5,0.2,5.1,2,7 c1.5,1.6,3.6,2.5,5.8,2.5c0.3,0,0.7,0,1-0.1c15-1.9,26.5-9.9,33.3-23c17.2-33.5-0.3-94.1-12.9-117.6 C2603.7,1939,2600.9,1937.4,2597.9,1937.5z"/></g><g id="change1_24"><path d="M2591.7,2162.3c-12.9-5.5-27.8-3.1-43,6.9c-28.4,18.8-54.1,62.2-54,91.2c0,4.4,3.6,8,8,8c0,0,0,0,0,0 c21.3-0.1,41.9-11,59.7-31.6c14.8-17.2,26.9-40.3,33.9-64.9C2597.4,2168,2595.4,2163.9,2591.7,2162.3z"/></g></g></svg>